# xmcd CD database file
#
# Track frame offsets:
#	150
#	16604
#	29892
#	47274
#	64155
#	82005
#	104422
#	125748
#	146462
#	163954
#	182851
#	200852
#	228082
#	246280
#	267308
#	286027
#	303999
#	331531
#
# Disc length: 4716 seconds
#
# Revision: 0
# Processed by: cddbd v1.5.1PL2 Copyright (c) Steve Scherf et al.
# Submitted via: Feurio! 1.68 - http://www.feurio.com
#
DISCID=00126a12
DTITLE=Lonnie Brooks - Got Lucky
DYEAR=1900
DGENRE=
TTITLE0=Watch Dog
TTITLE1=Got Lucky Last Night
TTITLE2=Bon Ton Roulet
TTITLE3=Hoodo She Do
TTITLE4=Backbone Man
TTITLE5=Too Little Too Late
TTITLE6=Stranger In My House
TTITLE7=I Need A Friend
TTITLE8=Evil Twin
TTITLE9=Roll Of The Tumbling Dice
TTITLE10=One Train
TTITLE11=Before You Go
TTITLE12=Get Through To You
TTITLE13=Voodoo Daddy
TTITLE14=Rockin' Red Rooster
TTITLE15=It's a Dirty Job - mit Koko Taylor
TTITLE16=If The Price Is Right - mit Koko Taylor
TTITLE17=Those Lonely Lonely Nights - mit Koko Taylor and Kathie Webster
EXTD=
EXTT0=
EXTT1=
EXTT2=
EXTT3=
EXTT4=
EXTT5=
EXTT6=
EXTT7=
EXTT8=
EXTT9=
EXTT10=
EXTT11=
EXTT12=
EXTT13=
EXTT14=
EXTT15=
EXTT16=
EXTT17=
PLAYORDER=
